<svg id="prize-icon-1" xmlns="http://www.w3.org/2000/svg" xmlns:xlink="http://www.w3.org/1999/xlink" viewBox="0 0 350 330">
  <defs>
    <clipPath id="window">
      <path d="M275,225.43H257.87a17.6,17.6,0,0,1-17.52-17.58V170a17.6,17.6,0,0,1,17.52-17.58H275A17.6,17.6,0,0,1,292.51,170v37.83A17.61,17.61,0,0,1,275,225.43Z"/>
    </clipPath>
  </defs>
  <g clip-path="url(#window)">
    <g transform="translate(220 160)">
      <line x1="28.18" y1="38.34" x2="91.09" y2="38.34" fill="none" stroke="rgba(255, 255, 255, 0)" stroke-linecap="round" stroke-miterlimit="10" stroke-width="2">
        <animateTransform
          attributeName="transform"
          type="translate"
          to="-200"
          dur="2s"
          begin="2.7s"
          fill="freeze"
        />
        <animate
          attributeName="stroke"
          values="
            rgba(255, 255, 255, 0);
            rgba(255, 255, 255, 1);
            rgba(255, 255, 255, 1);
            rgba(255, 255, 255, 0)
          "
          keyTimes="0; 0.1; 0.9; 1"
          begin="2.8s"
          dur="2s"
          fill="freeze"
        />
      </line>
      <path d="M41.77,97.54H77.06a12.4,12.4,0,1,1,24.8,0h17.93" transform="translate(-40.77 -69.46)" fill="none" stroke="rgba(255, 255, 255, 0)" stroke-linecap="round" stroke-miterlimit="10" stroke-width="2">
        <animateTransform
          attributeName="transform"
          type="translate"
          to="-200, -69.46"
          dur="2s"
          begin="2.7s"
          fill="freeze"
        />
        <animate
          attributeName="stroke"
          values="
            rgba(255, 255, 255, 0);
            rgba(255, 255, 255, 1);
            rgba(255, 255, 255, 1);
            rgba(255, 255, 255, 0)
          "
          keyTimes="0; 0.1; 0.9; 1"
          begin="2.8s"
          dur="2s"
          fill="freeze"
        />
      </path>
      <line x1="218.19" y1="23.72" x2="257.97" y2="23.72" fill="none" stroke="rgba(255, 255, 255, 0)" stroke-linecap="round" stroke-miterlimit="10" stroke-width="2">
        <animateTransform
          attributeName="transform"
          type="translate"
          to="-200"
          dur="2s"
          begin="2.7s"
          fill="freeze"
        />
        <animate
          attributeName="stroke"
          values="
            rgba(255, 255, 255, 0);
            rgba(255, 255, 255, 1);
            rgba(255, 255, 255, 1);
            rgba(255, 255, 255, 0)
          "
          keyTimes="0; 0.1; 0.9; 1"
          begin="2.8s"
          dur="2s"
          fill="freeze"
        />
      </line>
      <path d="M278.75,82.91H251.39a12.4,12.4,0,1,0-24.8,0H208.65" transform="translate(-40.77 -69.46)" fill="none" stroke="#fff" stroke-linecap="round" stroke-miterlimit="10" stroke-width="2">
        <animateTransform
          attributeName="transform"
          type="translate"
          to="-200, -69.46"
          dur="2s"
          begin="2.7s"
          fill="freeze"
        />
        <animate
          attributeName="stroke"
          values="
            rgba(255, 255, 255, 0);
            rgba(255, 255, 255, 1);
            rgba(255, 255, 255, 1);
            rgba(255, 255, 255, 0)
          "
          keyTimes="0; 0.1; 0.9; 1"
          begin="2.8s"
          dur="2s"
          fill="freeze"
        />
      </path>
      <line x1="246.24" y1="13.45" x2="268.43" y2="13.45" fill="none" stroke="#fff" stroke-linecap="round" stroke-miterlimit="10" stroke-width="2">
        <animateTransform
          attributeName="transform"
          type="translate"
          to="-200"
          dur="2s"
          begin="2.7s"
          fill="freeze"
        />
        <animate
          attributeName="stroke"
          values="
            rgba(255, 255, 255, 0);
            rgba(255, 255, 255, 1);
            rgba(255, 255, 255, 1);
            rgba(255, 255, 255, 0)
          "
          keyTimes="0; 0.1; 0.9; 1"
          begin="2.8s"
          dur="2s"
          fill="freeze"
        />
      </line>
    </g>
  </g>
  <g>
    <!-- chair -->
    <g>
      <g id="columns" class="prizes__columns">
        <path d="M91.14 327.79C89.9394 327.684 89.0477 326.632 89.14 325.43L102.8 132.26C103.9 116.77 98 110.34 94.05 107.79C93.5925 107.481 93.3691 106.925 93.4858 106.386C93.6025 105.846 94.0358 105.432 94.58 105.34C103 104 122.18 104 120 134.19L106.43 326.67C106.324 327.866 105.278 328.757 104.08 328.67L91.14 327.79Z" fill="#ffffff" fill-rule="evenodd" opacity="1" stroke="none"/>
        <path d="M124.5 328.17C123.285 328.154 122.313 327.155 122.33 325.94L124.57 132.31C124.76 116.78 118.5 110.7 114.41 108.4C113.94 108.116 113.689 107.576 113.774 107.034C113.86 106.492 114.266 106.055 114.8 105.93C123.16 104.03 142.29 102.93 141.95 133.21L139.7 326.14C139.689 327.355 138.695 328.331 137.48 328.32L124.5 328.17Z" fill="#ffffff" fill-rule="evenodd" opacity="1" stroke="none"/>
      </g>
      <g id="chair" class="prizes__chair">
        <path d="M257.5 259.82L196.76 259.82L196.76 245.63L251.85 245.63C257.325 245.641 261.756 250.085 261.75 255.56C261.744 257.905 259.845 259.805 257.5 259.81" fill="#a67ee5" fill-rule="evenodd" opacity="1" stroke="none"/>
        <path d="M257.5 259.82L196.76 259.82L196.76 245.63L251.85 245.63C257.325 245.641 261.756 250.085 261.75 255.56C261.75 257.909 259.849 259.814 257.5 259.82Z" fill="none" fill-rule="evenodd" opacity="1" stroke="#ffffff" stroke-linecap="butt" stroke-linejoin="miter" stroke-width="2"/>
        <path d="M185.47 328.31L171.5 328.31L165.19 286.72L179.16 286.72L185.47 328.31Z" fill="#a67ee5" fill-rule="evenodd" opacity="1" stroke="none"/>
        <path d="M185.47 328.31L171.5 328.31L165.19 286.72L179.16 286.72L185.47 328.31Z" fill="none" fill-rule="evenodd" opacity="1" stroke="#ffffff" stroke-linecap="butt" stroke-linejoin="miter" stroke-width="2"/>
        <path d="M235.03 328.31L221.06 328.31L214.76 286.72L228.72 286.72L235.03 328.31Z" fill="#a67ee5" fill-rule="evenodd" opacity="1" stroke="none"/>
        <path d="M235.03 328.31L221.06 328.31L214.76 286.72L228.72 286.72L235.03 328.31Z" fill="none" fill-rule="evenodd" opacity="1" stroke="#ffffff" stroke-linecap="butt" stroke-linejoin="miter" stroke-width="2"/>
        <path d="M281.33 272.45L225.44 272.45C222.669 272.45 220.316 270.421 219.91 267.68L209.05 195.44C214.97 190.538 217.052 182.377 214.204 175.238C211.356 168.099 204.229 163.612 196.56 164.13L141.48 164.13L141.16 267L156.93 290.35L204.12 298.74C205.472 299.235 206.9 299.489 208.34 299.49L281.34 299.49C288.812 299.49 294.87 293.432 294.87 285.96C294.87 278.488 288.812 272.43 281.34 272.43" fill="#a67ee5" fill-rule="evenodd" opacity="1" stroke="none"/>
        <path d="M281.33 272.45L225.44 272.45C222.669 272.45 220.316 270.421 219.91 267.68L209.05 195.44C214.97 190.538 217.052 182.377 214.204 175.238C211.356 168.099 204.229 163.612 196.56 164.13L141.48 164.13L141.16 267L156.93 290.35L204.12 298.74C205.472 299.235 206.9 299.489 208.34 299.49L281.34 299.49C288.605 299.208 294.347 293.235 294.345 285.965C294.342 278.695 288.595 272.727 281.33 272.45Z" fill="none" fill-rule="evenodd" opacity="1" stroke="#ffffff" stroke-linecap="butt" stroke-linejoin="miter" stroke-width="2"/>
        <path d="M162.42 267.69L151.56 195.45C157.899 190.205 159.791 181.286 156.127 173.919C152.464 166.553 144.21 162.679 136.203 164.569C128.196 166.458 122.544 173.613 122.56 181.84C122.562 183.619 122.829 185.389 123.35 187.09L138.65 289C139.551 295.051 144.742 299.532 150.86 299.54L223.86 299.54C231.186 299.341 237.022 293.344 237.022 286.015C237.022 278.686 231.186 272.689 223.86 272.49L167.95 272.49C165.181 272.477 162.834 270.448 162.42 267.71" fill="#a67ee5" fill-rule="evenodd" opacity="1" stroke="none"/>
        <path d="M162.42 267.69L151.56 195.45C157.899 190.205 159.791 181.286 156.127 173.919C152.464 166.553 144.21 162.679 136.203 164.569C128.196 166.458 122.544 173.613 122.56 181.84C122.562 183.619 122.829 185.389 123.35 187.09L138.65 289C139.551 295.051 144.742 299.532 150.86 299.54L223.86 299.54C231.186 299.341 237.022 293.344 237.022 286.015C237.022 278.686 231.186 272.689 223.86 272.49L167.95 272.49C165.174 272.475 162.825 270.436 162.42 267.69Z" fill="none" fill-rule="evenodd" opacity="1" stroke="#ffffff" stroke-linecap="butt" stroke-linejoin="miter" stroke-width="2"/>
        <path d="M206.26 259.82L134.26 259.82L132.13 245.63L200.6 245.63C206.075 245.641 210.506 250.085 210.5 255.56C210.495 257.905 208.595 259.805 206.25 259.81" fill="#a67ee5" fill-rule="evenodd" opacity="1" stroke="none"/>
        <path d="M206.26 259.82L134.26 259.82L132.13 245.63L200.6 245.63C206.075 245.641 210.506 250.085 210.5 255.56C210.5 257.905 208.605 259.809 206.26 259.82Z" fill="none" fill-rule="evenodd" opacity="1" stroke="#ffffff" stroke-linecap="butt" stroke-linejoin="miter" stroke-width="2"/>
        <path d="M151.57 195.44L209.05 195.44" fill="none" fill-rule="evenodd" opacity="1" stroke="#ffffff" stroke-linecap="round" stroke-linejoin="miter" stroke-width="2"/>
      </g>
      <g id="fern" class="prizes__fern">
        <g class="prizes__fern-wrapper">
          <path d="M79.18 194C85.4261 202.316 90.6596 211.346 94.77 220.9C87.606 213.464 80.9004 205.599 74.69 197.35C68.4883 189.072 62.7881 180.43 57.62 171.47C65.6734 178.1 72.9108 185.663 79.18 194" fill="#36e69a" fill-rule="evenodd" opacity="1" stroke="none"/>
          <path d="M80.94 214.39C89.3383 220.276 96.9939 227.156 103.74 234.88C94.8077 230.187 86.1775 224.94 77.9 219.17C69.7048 213.439 61.8824 207.194 54.48 200.47C63.8466 203.987 72.7358 208.663 80.94 214.39" fill="#36e69a" fill-rule="evenodd" opacity="1" stroke="none"/>
          <path d="M93.66 205.48C96.4274 215.47 99.7935 225.284 103.74 234.87C103.5 224.55 101.988 214.3 99.24 204.35C96.3865 194.098 92.3388 184.217 87.18 174.91C88.7226 185.22 90.8832 195.429 93.65 205.48" fill="#36e69a" fill-rule="evenodd" opacity="1" stroke="none"/>
          <path d="M107.32 213.52C107.377 223.776 108.065 234.019 109.38 244.19C111.898 234.372 113.161 224.275 113.14 214.14C113.075 203.564 111.732 193.034 109.14 182.78C107.854 192.976 107.229 203.244 107.27 213.52" fill="#25b774" fill-rule="evenodd" opacity="1" stroke="none"/>
          <path d="M83.08 229.56C92.4142 233.336 101.245 238.253 109.37 244.2C99.7922 241.753 90.3853 238.679 81.21 235C72.1574 231.339 63.3493 227.1 54.84 222.31C64.5308 223.516 74.0258 225.966 83.09 229.6" fill="#25b774" fill-rule="evenodd" opacity="1" stroke="none"/>
          <path d="M88.06 243.83C97.6806 246.377 106.941 250.13 115.62 255C105.908 253.803 96.2919 251.932 86.84 249.4C77.5057 246.893 68.346 243.777 59.42 240.07C69.0896 240.093 78.7169 241.347 88.07 243.8" fill="#25b774" fill-rule="evenodd" opacity="1" stroke="none"/>
          <path d="M118.71 224.79C117.033 234.797 115.997 244.901 115.61 255.04C119.756 245.942 122.72 236.351 124.43 226.5C126.18 216.201 126.657 205.726 125.85 195.31C122.772 204.955 120.383 214.807 118.7 224.79" fill="#25b774" fill-rule="evenodd" opacity="1" stroke="none"/>
          <path d="M98.86 262C108.367 264.957 117.462 269.103 125.93 274.34C116.275 272.737 106.742 270.468 97.4 267.55C88.1811 264.661 79.1617 261.17 70.4 257.1C80.056 257.521 89.6193 259.167 98.86 262" fill="#068e4d" fill-rule="evenodd" opacity="1" stroke="none"/>
          <path d="M130.27 244.29C128.179 254.22 126.73 264.274 125.93 274.39C130.454 265.47 133.815 256.006 135.93 246.23C138.105 236.014 139.015 225.569 138.64 215.13C135.168 224.64 132.375 234.385 130.28 244.29" fill="#068e4d" fill-rule="evenodd" opacity="1" stroke="none"/>
          <path d="M108.9 280.69C118.279 284.044 127.196 288.57 135.44 294.16C125.858 292.144 116.426 289.471 107.21 286.16C98.1172 282.886 89.2483 279.021 80.66 274.59C90.2934 275.409 99.7831 277.452 108.9 280.67" fill="#068e4d" fill-rule="evenodd" opacity="1" stroke="none"/>
          <path d="M141 264.26C138.499 274.096 136.635 284.084 135.42 294.16C140.302 285.429 144.049 276.11 146.57 266.43C149.173 256.3 150.516 245.889 150.57 235.43C146.702 244.801 143.504 254.436 141 264.26" fill="#068e4d" fill-rule="evenodd" opacity="1" stroke="none"/>
          <path d="M92.62 217.67C115.835 252.089 134.92 289.12 149.48 328" fill="none" fill-rule="evenodd" opacity="1" stroke="#36e69a" stroke-linecap="round" stroke-linejoin="round" stroke-width="2"/>
        </g>
      </g>
      <animateTransform
        xlink:href="#chair"
        attributeName="transform"
        type="translate"
        from="-100"
        to="0"
        begin="2.8s"
        dur="0.4s"
        keyTimes="0; 1"
        calcMode="spline"
        keySplines="0.43 0.78 0.49 0.99"
        fill="freeze"
      />
      <animateTransform
        xlink:href="#columns"
        attributeName="transform"
        type="translate"
        from="-100"
        to="0"
        begin="3s"
        dur="0.2s"
        keyTimes="0; 1"
        calcMode="spline"
        keySplines="0.43 0.78 0.49 0.99"
        fill="freeze"
      />
      <animateTransform
        xlink:href="#fern"
        attributeName="transform"
        type="translate"
        from="-100"
        to="0"
        begin="2.9s"
        dur="0.3s"
        keyTimes="0; 1"
        calcMode="spline"
        keySplines="0.43 0.78 0.49 0.99"
        fill="freeze"
        additive="sum"
      />
    </g>
    <g style="animation: hide 0.4s 3s forwards;">
      <g id="engine-1">
        <path d="M123.23,173.34h9.16a3.29,3.29,0,0,1,3.29,3.3v5.71a3.29,3.29,0,0,1-3.29,3.3H115.57a1.32,1.32,0,0,1-1.32-1.32v-2a9,9,0,0,1,9-9" fill="#068e4d"/>
        <path d="M123.23,173.34h9.16a3.29,3.29,0,0,1,3.29,3.3v5.71a3.29,3.29,0,0,1-3.29,3.3H115.57a1.32,1.32,0,0,1-1.32-1.32v-2A9,9,0,0,1,123.23,173.34Z" fill="none" stroke="#fff" stroke-linecap="round" stroke-linejoin="round" stroke-width="2"/>
        <animateTransform
          attributeName="transform"
          type="translate"
          values="0, -2.5; 0, -2; 0, 2; 0, 2.5; 0, 2; 0, -2; 0, -2.5"
          keyTimes="0; 0.16; 0.32; 0.5; 0.66; 0.83; 1"
          dur="1.5s"
          repeatCount="indefinite"
        />
      </g>
      <g id="engine-2">
        <path d="M123.23,207.39h9.16a3.29,3.29,0,0,0,3.29-3.3v-5.71a3.29,3.29,0,0,0-3.29-3.3H115.57a1.32,1.32,0,0,0-1.32,1.32v2a9,9,0,0,0,9,9" fill="#068e4d"/>
        <path d="M123.23,207.39h9.16a3.29,3.29,0,0,0,3.29-3.3v-5.71a3.29,3.29,0,0,0-3.29-3.3H115.57a1.32,1.32,0,0,0-1.32,1.32v2A9,9,0,0,0,123.23,207.39Z" fill="none" stroke="#fff" stroke-linecap="round" stroke-linejoin="round" stroke-width="2"/>
        <animateTransform
          attributeName="transform"
          type="translate"
          values="0, -2.5; 0, -2; 0, 2; 0, 2.5; 0, 2; 0, -2; 0, -2.5"
          keyTimes="0; 0.16; 0.32; 0.5; 0.66; 0.83; 1"
          dur="1.5s"
          repeatCount="indefinite"
        />
      </g>
      <path d="M175.44,249.28h48.36a13.27,13.27,0,0,0,13-10.65l3.74-18.32H172.36v25.89A3.09,3.09,0,0,0,175.44,249.28Z" fill="none" stroke="#fff" stroke-linecap="round" stroke-linejoin="round" stroke-width="2">
        <animate
          attributeName="d"
          values="
          M182.626 246.951L213.613 247.304C219.928 247.3 233.875 243.488 235.122 237.296L240.567 220.283L172.387 220.283L176.273 241.868C176.278 243.566 180.928 246.946 182.626 246.951Z;
          M182.161 248.108L214.548 248.299C220.864 248.294 234.42 244.021 235.667 237.829L240.567 220.283L172.387 220.283L175.246 242.494C175.252 244.193 180.462 248.102 182.161 248.108Z;
            M175.44 249.28L223.8 249.28C230.116 249.276 235.553 244.821 236.8 238.63L240.54 220.31L172.36 220.31L172.36 246.2C172.365 247.899 173.741 249.275 175.44 249.28Z;
            M182.161 248.108L214.548 248.299C220.864 248.294 234.42 244.021 235.667 237.829L240.567 220.283L172.387 220.283L175.246 242.494C175.252 244.193 180.462 248.102 182.161 248.108Z;
            M182.626 246.951L213.613 247.304C219.928 247.3 233.875 243.488 235.122 237.296L240.567 220.283L172.387 220.283L176.273 241.868C176.278 243.566 180.928 246.946 182.626 246.951Z;
          "
          dur="0.75s"
          repeatCount="indefinite"
        />
      </path>
      <path d="M 236.09491,240.62281 L 225.65526,240.62281 C 221.0775,240.60628 218.28997,237.9578 218.29,233.38 V 220.31" fill="none" stroke="#fff" stroke-linecap="round" stroke-miterlimit="10" stroke-width="2">
        <animate
          attributeName="d"
          values="
          M234.604 238.358L226.273 238.373C221.695 238.357 217.767 234.864 217.767 230.286L218.317 220.283;
          M234.951 239.135L226.49 239.357C221.913 239.34 218.276 236.019 218.276 231.441L218.317 220.283;
            M235.79 241.69L226.57 241.69C221.992 241.673 218.29 237.958 218.29 233.38L218.29 220.31;
            M234.951 239.135L226.49 239.357C221.913 239.34 218.276 236.019 218.276 231.441L218.317 220.283;
            M234.604 238.358L226.273 238.373C221.695 238.357 217.767 234.864 217.767 230.286L218.317 220.283;
          "
          dur="0.75s"
          repeatCount="indefinite"
        />
      </path>
    </g>
    <!--  -->
    <path d="M204.25,231.88h-2.05a3.45,3.45,0,0,0-3.43,3.45v2.92a3.45,3.45,0,0,0,3.43,3.45h2.05a3.45,3.45,0,0,0,3.43-3.45v-2.92A3.44,3.44,0,0,0,204.25,231.88Z" fill="none" stroke="#fff" stroke-linecap="round" stroke-linejoin="round" stroke-width="2">
      <animate
        attributeName="d"
        values="
        M204.354 230.8L202.13 230.796C200.232 230.807 198.774 232.126 198.774 234.023L198.729 237.114C198.729 239.012 199.781 240.213 201.679 240.224L204.541 240.201C206.438 240.19 207.517 238.779 207.517 236.881L207.479 233.753C207.485 231.853 206.254 230.805 204.354 230.8Z;
        M204.487 231.135L201.815 231.105C199.918 231.116 198.543 232.496 198.543 234.394L198.597 237.567C198.597 239.465 199.687 240.817 201.585 240.828L204.63 240.863C206.527 240.852 207.526 239.393 207.526 237.495L207.525 234.346C207.531 232.446 206.387 231.141 204.487 231.135Z;
          M204.25 231.88L202.2 231.88C200.302 231.891 198.77 233.432 198.77 235.33L198.77 238.25C198.77 240.148 200.302 241.689 202.2 241.7L204.25 241.7C206.148 241.689 207.68 240.148 207.68 238.25L207.68 235.33C207.686 233.43 206.15 231.886 204.25 231.88Z;
          M204.487 231.135L201.815 231.105C199.918 231.116 198.543 232.496 198.543 234.394L198.597 237.567C198.597 239.465 199.687 240.817 201.585 240.828L204.63 240.863C206.527 240.852 207.526 239.393 207.526 237.495L207.525 234.346C207.531 232.446 206.387 231.141 204.487 231.135Z;
          M204.354 230.8L202.13 230.796C200.232 230.807 198.774 232.126 198.774 234.023L198.729 237.114C198.729 239.012 199.781 240.213 201.679 240.224L204.541 240.201C206.438 240.19 207.517 238.779 207.517 236.881L207.479 233.753C207.485 231.853 206.254 230.805 204.354 230.8Z;
        "
        dur="0.75s"
        repeatCount="4"
      />
      <animate
        attributeName="d"
        from="M204.25 231.88L202.2 231.88C200.302 231.891 198.77 233.432 198.77 235.33L198.77 238.25C198.77 240.148 200.302 241.689 202.2 241.7L204.25 241.7C206.148 241.689 207.68 240.148 207.68 238.25L207.68 235.33C207.686 233.43 206.15 231.886 204.25 231.88Z"
        to="M275 225.43L257.87 225.43C248.189 225.386 240.361 217.531 240.35 207.85L240.35 170C240.361 160.319 248.189 152.464 257.87 152.42L275 152.42C284.677 152.469 292.499 160.323 292.51 170L292.51 207.83C292.505 217.513 284.683 225.375 275 225.43Z"
        dur="0.3s"
        begin="3s"
        keyTimes="0; 1"
        calcMode="spline"
        keySplines="0.43 0.78 0.49 0.99"
        fill="freeze"
      />
    </path>
    <g style="animation: hide 0.4s 3s forwards;">
      <path d="M185.64,231.88h-2.05a3.45,3.45,0,0,0-3.43,3.45v2.92a3.45,3.45,0,0,0,3.43,3.45h2.05a3.45,3.45,0,0,0,3.43-3.45v-2.92A3.45,3.45,0,0,0,185.64,231.88Z" fill="none" stroke="#fff" stroke-linecap="round" stroke-linejoin="round" stroke-width="2">
        <animate
          attributeName="d"
          values="
          M188.27 230.593L184.974 230.652C183.077 230.663 181.671 232.032 181.671 233.93L182.156 237.138C182.156 239.036 183.59 240.245 185.487 240.256L188.218 240.173C190.116 240.162 191.073 239.357 191.073 237.459L190.916 234.065C190.916 232.167 190.168 230.604 188.27 230.593Z;
          M188.131 230.887L184.98 230.856C183.082 230.867 181.434 232.324 181.434 234.222L181.72 237.456C181.72 239.354 183.296 240.779 185.193 240.79L188.229 240.989C190.126 240.978 191.073 239.357 191.073 237.459L190.899 234.16C190.9 232.262 190.028 230.898 188.131 230.887Z;
            M185.64 231.88L183.59 231.88C181.692 231.891 180.16 233.432 180.16 235.33L180.16 238.25C180.16 240.148 181.692 241.689 183.59 241.7L185.64 241.7C187.538 241.689 189.07 240.148 189.07 238.25L189.07 235.33C189.07 233.432 187.538 231.891 185.64 231.88Z;
            M188.131 230.887L184.98 230.856C183.082 230.867 181.434 232.324 181.434 234.222L181.72 237.456C181.72 239.354 183.296 240.779 185.193 240.79L188.229 240.989C190.126 240.978 191.073 239.357 191.073 237.459L190.899 234.16C190.9 232.262 190.028 230.898 188.131 230.887Z;
            M188.27 230.593L184.974 230.652C183.077 230.663 181.671 232.032 181.671 233.93L182.156 237.138C182.156 239.036 183.59 240.245 185.487 240.256L188.218 240.173C190.116 240.162 191.073 239.357 191.073 237.459L190.916 234.065C190.916 232.167 190.168 230.604 188.27 230.593Z;
          "
          dur="0.75s"
          repeatCount="indefinite"
        />
      </path>
      <path d="M205,227.08c43.38,0,74.86-15.55,74.86-37s-31.48-37-74.86-37c-27.94,0-55.36,13.53-73.46,24.87a14.3,14.3,0,0,0,0,24.21c18.09,11.33,45.52,24.87,73.46,24.87" fill="#068e4d"/>
      <path d="M205,227.08c43.38,0,74.86-15.55,74.86-37s-31.48-37-74.86-37c-27.94,0-55.36,13.53-73.46,24.87a14.3,14.3,0,0,0,0,24.21C149.63,213.54,177.06,227.08,205,227.08Z" fill="none" stroke="#fff" stroke-width="2"/>
      <path d="m 200,187.09 c -28.23,0 -51.57,-0.74 -67.81,-1 -3.95,1 -6,2.66 -6.08,4.34 -0.16616,-4.62132 2.14832,-8.97956 6.07,-11.43 16.74,-10.5 44.58,-24.68 72.81,-24.68 44.81,0 73.64,16 73.64,35.75 v 0.37 c -0.37,-7.95 -27.6,-2.87 -72.13,-2.87" fill="#36e69a"/>
      <path d="M132.18,195.12c16.74,4.27,44.58,10,72.81,10,44.14,0,72.75-6.32,73.6-14.18-0.86,19.34-29.45,34.86-73.6,34.86-28.23,0-56.07-14.19-72.81-24.68a12.88,12.88,0,0,1-6-10.18c0.26,1.61,2.26,3.18,6,4.14" fill="#068e4d"/>
      <path id="ball-center" d="M132.18,186.12c16.74-4.27,44.58-10,72.81-10,44.53,0,73.26,6.43,73.61,14.38,0,0.17,0,.34,0,0.51-0.85,7.86-29.45,14.17-73.6,14.17-28.23,0-56.07-5.76-72.81-10-3.79-1-5.79-2.53-6-4.13l0-.51c0.13-1.69,2.15-3.36,6.1-4.37" fill="#25b774">
        <animate
          attributeName="d"
          values="
            m 132.18,186.12 c 16.74,-4.27 44.4713,-6.30435 72.7013,-6.30435 44.53,0 73.3687,2.73435 73.7187,10.68435 v 0.51 c -0.85,7.86 -29.23261,17.75696 -73.38261,17.75696 -28.23,0 -56.28739,-9.34696 -73.02739,-13.58696 -3.79,-1 -5.79,-2.53 -6,-4.13 v -0.51 c 0.13,-1.69 2.15,-3.36 6.1,-4.37;
            m 132.18,186.12 c 16.74,-4.27 44.4713,-7.06522 72.7013,-7.06522 44.53,0 73.3687,3.49522 73.7187,11.44522 v 0.51 c -0.85,7.86 -29.23261,17.10478 -73.38261,17.10478 -28.23,0 -56.28739,-8.69478 -73.02739,-12.93478 -3.79,-1 -5.79,-2.53 -6,-4.13 v -0.51 c 0.13,-1.69 2.15,-3.36 6.1,-4.37;
            m 132.18,186.12 c 16.74,-4.27 44.58,-13.26087 72.81,-13.26087 44.53,0 73.26,9.69087 73.61,17.64087 v 0.51 c -0.85,7.86 -29.5587,10.90913 -73.7087,10.90913 -28.23,0 -55.9613,-2.49913 -72.7013,-6.73913 -3.79,-1 -5.79,-2.53 -6,-4.13 v -0.51 c 0.13,-1.69 2.15,-3.36 6.1,-4.37;
            m 132.18,186.12 c 16.74,-4.27 44.6887,-13.80435 72.9187,-13.80435 44.53,0 73.1513,10.23435 73.5013,18.18435 v 0.51 c -0.85,7.86 -29.45,10.14826 -73.6,10.14826 -28.23,0 -56.07,-1.73826 -72.81,-5.97826 -3.79,-1 -5.79,-2.53 -6,-4.13 v -0.51 c 0.13,-1.69 2.15,-3.36 6.1,-4.37;
            m 132.18,186.12 c 16.74,-4.27 44.58,-13.26087 72.81,-13.26087 44.53,0 73.26,9.69087 73.61,17.64087 v 0.51 c -0.85,7.86 -29.5587,10.90913 -73.7087,10.90913 -28.23,0 -55.9613,-2.49913 -72.7013,-6.73913 -3.79,-1 -5.79,-2.53 -6,-4.13 v -0.51 c 0.13,-1.69 2.15,-3.36 6.1,-4.37;
            m 132.18,186.12 c 16.74,-4.27 44.4713,-7.06522 72.7013,-7.06522 44.53,0 73.3687,3.49522 73.7187,11.44522 v 0.51 c -0.85,7.86 -29.23261,17.10478 -73.38261,17.10478 -28.23,0 -56.28739,-8.69478 -73.02739,-12.93478 -3.79,-1 -5.79,-2.53 -6,-4.13 v -0.51 c 0.13,-1.69 2.15,-3.36 6.1,-4.37;
            m 132.18,186.12 c 16.74,-4.27 44.4713,-6.30435 72.7013,-6.30435 44.53,0 73.3687,2.73435 73.7187,10.68435 v 0.51 c -0.85,7.86 -29.23261,17.75696 -73.38261,17.75696 -28.23,0 -56.28739,-9.34696 -73.02739,-13.58696 -3.79,-1 -5.79,-2.53 -6,-4.13 v -0.51 c 0.13,-1.69 2.15,-3.36 6.1,-4.37;
          "
          keyTimes="0; 0.16; 0.33; 0.5; 0.66; 0.83; 1"
          dur="1.5s"
          repeatCount="indefinite"
        />
      </path>
      <g id="engine-3">
        <path d="M123.23,173.34h9.16a3.29,3.29,0,0,1,3.29,3.3v5.71a3.29,3.29,0,0,1-3.29,3.3H115.57a1.32,1.32,0,0,1-1.32-1.32v-2a9,9,0,0,1,9-9" fill="#068e4d"/>
        <path d="M123.23,173.34h9.16a3.29,3.29,0,0,1,3.29,3.3v5.71a3.29,3.29,0,0,1-3.29,3.3H115.57a1.32,1.32,0,0,1-1.32-1.32v-2A9,9,0,0,1,123.23,173.34Z" fill="none" stroke="#fff" stroke-linecap="round" stroke-linejoin="round" stroke-width="2"/>
        <animateTransform
          attributeName="transform"
          type="translate"
          values="0, 2.5; 0, 2; 0, -2; 0, -2.5; 0, -2; 0, 2; 0, 2.5"
          keyTimes="0; 0.16; 0.32; 0.5; 0.66; 0.83; 1"
          dur="1.5s"
          repeatCount="indefinite"
        />
      </g>
      <g id="engine-4">
        <path d="M123.23,207.39h9.16a3.29,3.29,0,0,0,3.29-3.3v-5.71a3.29,3.29,0,0,0-3.29-3.3H115.57a1.32,1.32,0,0,0-1.32,1.32v2a9,9,0,0,0,9,9" fill="#068e4d"/>
        <path d="M123.23,207.39h9.16a3.29,3.29,0,0,0,3.29-3.3v-5.71a3.29,3.29,0,0,0-3.29-3.3H115.57a1.32,1.32,0,0,0-1.32,1.32v2A9,9,0,0,0,123.23,207.39Z" fill="none" stroke="#fff" stroke-linecap="round" stroke-linejoin="round" stroke-width="2"/>
        <animateTransform
          attributeName="transform"
          type="translate"
          values="0, 2.5; 0, 2; 0, -2; 0, -2.5; 0, -2; 0, 2; 0, 2.5"
          dur="1.5s"
          repeatCount="indefinite"
        />
      </g>
    </g>
  </g>
  <line id="cloud-line-1" x1="68.95" y1="107.8" x2="131.86" y2="107.8" fill="none" stroke="rgba(255, 255, 255, 0)" stroke-linecap="round" stroke-miterlimit="10" stroke-width="2"/>
    <animateTransform
      xlink:href="#cloud-line-1"
      attributeName="transform"
      type="translate"
      from="180"
      to="-50"
      dur="2s"
      begin="0.6s"
      fill="freeze"
    />
    <animate
      id="start"
      xlink:href="#cloud-line-1"
      attributeName="stroke"
      values="
        rgba(255, 255, 255, 0);
        rgba(255, 255, 255, 1);
        rgba(255, 255, 255, 1);
        rgba(255, 255, 255, 0)
      "
      keyTimes="0; 0.1; 0.9; 1"
      begin="0.6s"
      dur="2s"
      fill="freeze"
    />
  <g>
    <path id="cloud-top-1" d="M41.77,97.54H77.06a12.4,12.4,0,1,1,24.8,0h17.93" fill="none" stroke="rgba(255, 255, 255, 0)" stroke-linecap="round" stroke-miterlimit="10" stroke-width="2"/>
      <animateTransform
        xlink:href="#cloud-top-1"
        attributeName="transform"
        type="translate"
        from="200"
        to="-50"
        begin="0.6s"
        dur="2s"
        fill="freeze"
      />
      <animate
        xlink:href="#cloud-top-1"
        attributeName="stroke"
        values="
          rgba(255, 255, 255, 0);
          rgba(255, 255, 255, 1);
          rgba(255, 255, 255, 1);
          rgba(255, 255, 255, 0)
        "
        keyTimes="0; 0.1; 0.9; 1"
        begin="0.6s"
        dur="2s"
        fill="freeze"
      />
  </g>
  <line id="cloud-line-2" x1="258.96" y1="93.19" x2="298.74" y2="93.19" fill="none" stroke="rgba(255, 255, 255, 0)" stroke-linecap="round" stroke-miterlimit="10" stroke-width="2"/>
    <animateTransform
      xlink:href="#cloud-line-2"
      attributeName="transform"
      type="translate"
      from="0"
      to="-150"
      begin="start.begin+1.5s"
      dur="2s"
      fill="freeze"
    />
    <animate
      xlink:href="#cloud-line-2"
      attributeName="stroke"
      values="
        rgba(255, 255, 255, 0);
        rgba(255, 255, 255, 1);
        rgba(255, 255, 255, 1);
        rgba(255, 255, 255, 0)
      "
      keyTimes="0; 0.1; 0.9; 1"
      begin="start.begin+1.5s"
      dur="2s"
      fill="freeze"
    />
  <g id="cloud-top-2">
    <path id="cloud-top-2-path" d="M278.75,82.91H251.39a12.4,12.4,0,1,0-24.8,0H208.65" fill="none" stroke="rgba(255, 255, 255, 0)" stroke-linecap="round" stroke-miterlimit="10" stroke-width="2"/>
    <line id="cloud-top-2-line" x1="287.01" y1="82.91" x2="309.21" y2="82.91" fill="none" stroke="rgba(255, 255, 255, 0)" stroke-linecap="round" stroke-miterlimit="10" stroke-width="2"/>
  </g>
    <animateTransform
      xlink:href="#cloud-top-2"
      attributeName="transform"
      type="translate"
      from="0"
      to="-170"
      begin="start.begin+1.5s"
      dur="2s"
      fill="freeze"
    />
    <animate
      xlink:href="#cloud-top-2-path"
      attributeName="stroke"
      values="
        rgba(255, 255, 255, 0);
        rgba(255, 255, 255, 1);
        rgba(255, 255, 255, 1);
        rgba(255, 255, 255, 0)
      "
      keyTimes="0; 0.1; 0.9; 1"
      begin="start.begin+1.5s"
      dur="2s"
      fill="freeze"
    />
    <animate
      xlink:href="#cloud-top-2-line"
      attributeName="stroke"
      values="
        rgba(255, 255, 255, 0);
        rgba(255, 255, 255, 1);
        rgba(255, 255, 255, 1);
        rgba(255, 255, 255, 0)
      "
      keyTimes="0; 0.1; 0.9; 1"
      begin="start.begin+1.5s"
      dur="2s"
      fill="freeze"
    />
  <g style="animation: hide 0.4s 3s forwards;">
    <line id="airship-trail-1" x1="106.25" y1="179.49" x2="84.05" y2="179.49" fill="none" stroke="#fff" stroke-linecap="round" stroke-miterlimit="10" stroke-width="2"/>
    <animate
      xlink:href="#airship-trail-1"
      attributeName="x2"
      values="84.05; 90.05; 84.05;"
      begin="0.1s"
      dur="0.2s"
      repeatCount="indefinite"
    />
    <line id="airship-trail-2" x1="106.25" y1="190.98" x2="68.77" y2="190.98" fill="none" stroke="#fff" stroke-linecap="round" stroke-miterlimit="10" stroke-width="2"/>
    <animate
      xlink:href="#airship-trail-2"
      attributeName="x2"
      values="68.77; 74.05; 68.77;"
      begin="0.05s"
      dur="0.2s"
      repeatCount="indefinite"
    />
    <line id="airship-trail-3" x1="106.25" y1="201.23" x2="84.05" y2="201.23" fill="none" stroke="#fff" stroke-linecap="round" stroke-miterlimit="10" stroke-width="2"/>
    <animate
      xlink:href="#airship-trail-3"
      attributeName="x2"
      values="84.05; 90.05; 84.05;"
      begin="0.15s"
      dur="0.2s"
      repeatCount="indefinite"
    />
  </g>
  <g>
    <path d="M289.94 327.88L244.88 327.88L212.8 296.58C212.096 295.985 211.064 295.985 210.36 296.58L200.16 306.81C199.514 307.369 198.556 307.369 197.91 306.81L178.91 286.64C178.015 285.883 176.705 285.883 175.81 286.64L149.39 312.28C148.746 312.843 147.784 312.843 147.14 312.28L144.51 309.36C143.856 308.761 142.854 308.761 142.2 309.36L124.63 329L80.78 329" fill="none" stroke="#fff" stroke-linecap="round" stroke-miterlimit="10" stroke-width="2">
      <animate
        attributeName="d"
        to="M289.94 327.88L244.88 327.88L213.178 328.117C212.474 327.522 210.951 327.347 210.247 327.943L199.673 327.907C199.027 328.466 197.923 328.887 197.277 328.328L176.648 328.548C175.753 327.792 173.942 327.353 173.047 328.11L148.743 327.984C148.098 328.547 146.841 328.912 146.196 328.349L143.69 328.614C143.037 328.016 142.034 328.016 141.38 328.614L124.63 329L80.78 329"
        dur="0.3s"
        begin="3s"
        fill="freeze"
        calcMode="spline"
        keySplines="0.17 0.67 0.83 0.67"
      />
    </path>
    <path d="M289.94,328H200.15c-0.86,0-1.56,0-2.25,0h-19c-1.5,0-2.23,0-3.1,0h-32.3c-1.09,0-1.66,0-2.31,0H80.78" fill="none" stroke="#fff" stroke-linecap="round" stroke-miterlimit="10" stroke-width="2"/>
  </g>
</svg>
